<svg version="1.1" id="Слой_1" xmlns="http://www.w3.org/2000/svg" x="0" y="0" viewBox="0 0 188 85" xml:space="preserve"><style>.st0,.st1{fill-rule:evenodd;clip-rule:evenodd;fill:#f2c144}.st1{fill:#1a1919}</style><path id="XMLID_36_" class="st0" d="M69.8 63.1h117.3l.9 4.7H69.8z"/><path id="XMLID_35_" class="st0" d="M0 67.8l.9-4.7h53.2v4.7z"/><path id="XMLID_32_" class="st1" d="M17.9 43.7h15.4l-7.5-14.2-7.9 14.2zm17.2-12l.9 1.6-.3-.5 1 1.7 18.7-21-18.7 21 1.7 3 11.5 20h-9.1L36.7 50H14.6l-4 7.5H2.5l19.7-34.8H30l5.1 9z"/><path id="XMLID_31_" class="st1" d="M165.2 29.1h16v-6.3h-40.1v6.3h16v28.5h8.1z"/><path id="XMLID_30_" class="st1" d="M129.6 29.1v6.6l8.1-1.3V31c0-1.5 0-4.7-1.9-6.5-1.7-1.6-4.5-1.7-6.7-1.7h-20.8c-2.2 0-5.1.1-6.7 1.7-1.9 1.8-1.9 5.1-1.9 6.5v18.3c0 1.5 0 4.7 1.9 6.5 1.7 1.6 4.5 1.7 6.7 1.7h20.8c2.2 0 5.1-.1 6.7-1.7 1.9-1.8 1.9-5.1 1.9-6.5v-4l-8.1-1.7v7.5h-21.8v-22h21.8z"/><path id="XMLID_29_" class="st1" d="M55.7 22.8v45h8.1V28.7z"/><path id="XMLID_26_" class="st0" d="M90 31.7c.3.3.2.8-.1 1.1-.4.2-.9.2-1.1-.2L66.7 5.5c-.3-.3-.2-.8.1-1.1.3-.3.8-.2 1.1.1L90 31.7zM67.5 47.4c0-.1 0 0-.1.4 1.4 2.3 2.7 4.2 3.9 5.7 5.1 2 8.9 2.9 11.2 3 3-.3 5.2-2.5 6.4-6.5 3-5.8 5.3-10.1 6.8-13-.4-1.3-1.6-2.6-3.5-3.7-6.3-7.9-12.3-15.5-17.9-23-4-5.5-7.2-8.5-9.5-9.1-1.1-.5-2.3-.8-3.3-.9-2.3-.2-2.5-.2-1.9 1.9.3 1.3.9 2.2 1.6 2.9-2.9 2.3-4.7 4-5.4 5.2-1.6-.2-3.1 1-4.6 3.5-3.2 3.4-10.9 12.1-16 18l.9 1.6 18.4-20.7c.3-.3.7-.3 1 0 .3.2.3.7 0 1l-18.7 21 2.7 4.6c3.5-4.6 14.4-17.7 17.4-21.2 1-1.4 1.9-2.5 2.7-3.3.5.4 0 0-1.4-1.2 1.7-1.7 3.1-2.7 4-3.1l.7.4c-.1-.2-.1-.3-.1-.5-.1-.8.5-1.4 1.2-1.4s1.3.6 1.3 1.3c0 .6-.5 1.2-1.1 1.3 5.6 3 9.6 5.1 11.9 6.3 0 2 .8 3.7 2.3 4.9H55.7l8.1 5.9h17.8c1.3 0 2.2.1 2.8.5 3.4 4.1 5.4 6.7 6 7.8-2.8 5.6-5.6 8.9-8.2 10.1l-7.3.1 1.9 2.9-.8.5-2.2-3.4h-1.7l2.1 3.3-.8.5-2.4-3.8h-1.4L72 51l-.8.5-2.8-4.3c-.8.2-1.1.2-.9.2"/><path id="XMLID_4_" class="st1" d="M181.2 82.1v-7.3H180l-5.1 4.3c-.2.2-.4.3-.5.4l-.4.4v-5.1h-1.5v7.3h1.2l5.4-4.5c.2-.1.3-.2.3-.3l.3-.3v5h1.5zm-18.9 0v-7.3h1.7v3l4-3h2.5l-4.8 3.4 5.4 3.9h-2.7l-4.4-3.2v3.2h-1.7zm-1.8 0v-7.3h-1.2l-5.1 4.3c-.2.2-.4.3-.5.4l-.4.4v-5.1h-1.5v7.3h1.2l5.4-4.5c.2-.1.3-.2.3-.3l.3-.3v5h1.5zm-19.2 0v-7.3h1.7v2.8h5.3v-2.8h1.7v7.3h-1.7V79H143v3.1h-1.7zm-10.9 0l3.5-3.7-3.5-3.5h2.2l2.3 2.5 2.2-2.5h2l-3.2 3.3 3.9 3.9h-2.3l-2.7-2.8-2.5 2.8h-1.9zm-9 0v-7.3h7.5V76h-5.8v1.6h3.4v1.2h-3.4v1.8h5.8V82h-7.5zm-4.3-6v6h-1.7v-6h-3.3v-1.3h8.4v1.3h-3.4zm-14.4-1.3v5.9h4.8v-5.9h1.7v5.9h1.6v2.5h-1.6v-1.1h-6.4c-.7 0-1.2-.1-1.4-.4-.3-.2-.4-.7-.4-1.4v-5.6h1.7zm-11.3 7.3v-7.3h7.5V76h-5.8v1.6h3.4v1.2h-3.4v1.8H99V82h-7.6zm-8.5 0v-5.9h4.8v5.9h1.7v-7.3h-8.2v7.3h1.7zm-5.2-6h-4.6v4.6h4.6v-1.6l1.7.3v.9c0 .7-.1 1.1-.4 1.4-.3.2-.7.4-1.4.4h-4.4c-.7 0-1.2-.1-1.4-.4-.2-.2-.4-.7-.4-1.4v-3.8c0-.7.1-1.1.4-1.3.3-.2.7-.4 1.4-.4h4.4c.7 0 1.2.1 1.4.4.2.2.4.7.4 1.3v.7l-1.7.3v-1.4zm-22 6l4.1-7.3h1.6l4.2 7.3h-1.9l-.9-1.6h-4.6l-.8 1.6h-1.7zm3.3-2.9h3.2l-1.6-3-1.6 3zm-4.3 2.9v-1.4h-.9v-5.9h-4.7c-1.3 0-2.4.3-3.1.9-.7.6-1.1 1.5-1.1 2.7v2.3H44v1.4h10.7zm-2.6-1.4h-5.4v-2.3c0-.7.2-1.3.7-1.7.4-.4 1-.6 1.8-.6h3v4.6zm-18.5 1.4v-7.3h1.7v2.8h5.3v-2.8h1.7v7.3h-1.7V79h-5.3v3.1h-1.7zm-9.3 0v-7.3h7.5V76H26v1.6h3.4v1.2H26v1.8h5.8V82h-7.5zm-10.4 0v-7.3h6.2c.6 0 1 .1 1.3.3.3.2.4.6.4 1.1v1.6c0 .5-.1.8-.4 1.1-.3.2-.7.3-1.3.3h-4.6V82h-1.6zm5.5-6h-3.8V78h3.8c.3 0 .5 0 .6-.1.1-.1.2-.2.2-.5v-.8c0-.2-.1-.4-.2-.5h-.6m-16.9 6l4.1-7.3h1.6l4.2 7.3h-1.9l-.9-1.6H5l-.8 1.6H2.5zm3.2-2.9h3.2l-1.6-3-1.6 3z"/></svg>