<svg version="1.1" id="Слой_1" xmlns="http://www.w3.org/2000/svg" x="0" y="0" viewBox="0 0 300 136" xml:space="preserve"><style>.st0{fill:#fff}.st11{fill:#1a1919}</style><path d="M110.7 2.4h18s-7.5 9.3-13.1 22.8H95.9s6.8-14.9 14.8-22.8z"/><path class="st0" d="M110 .9h18s-7.5 9.3-13.1 22.8H95.2s6.9-15 14.8-22.8z"/><path d="M73.5 34.1c4.8-2.3 15.7-2.3 15.7-2.3s-5.4 16.9-5.3 31.5H64.7s.3-16.4 8.8-29.2z"/><linearGradient id="SVGID_1_" gradientUnits="userSpaceOnUse" x1="67.033" y1="40.339" x2="85.708" y2="51.121"><stop offset="0" stop-color="#4b92c1"/><stop offset="1" stop-color="#79aed3"/></linearGradient><path d="M71.2 33.3c4.8-2.3 15.8-3 15.8-3s-6.3 14.6-6.1 29.2H62.8s-.1-13.4 8.4-26.2z" fill="url(#SVGID_1_)" stroke="#086aad" stroke-width="1.7" stroke-miterlimit="10"/><path d="M95.4 30.7c6.9-.8 19.1-.5 19.1-.5s-4.3 19.9-3.8 38.7c-22.4-.5-24.5-6.2-24.5-6.2s2.8-20.9 9.2-32z"/><linearGradient id="SVGID_2_" gradientUnits="userSpaceOnUse" x1="89.408" y1="39.066" x2="113.179" y2="52.79"><stop offset="0" stop-color="#4b92c1"/><stop offset="1" stop-color="#79aed3"/></linearGradient><path d="M94.7 29.9c6.9-.8 17.8-.5 17.8-.5s-5.4 14.1-4.8 32.9c-3 0-20.2-1.4-20.2-1.4s.7-19.8 7.2-31z" fill="url(#SVGID_2_)" stroke="#086aad" stroke-width="1.7" stroke-miterlimit="10"/><path d="M73.7 29.5c8.9-24.6 28.6-24.2 28.6-24.2S94.2 14 90.2 26.7c-7.5.3-12.4 1.3-16.5 2.8z"/><path class="st0" d="M72.9 27.7C81.8 3 101.5 3.4 101.5 3.4s-8.1 8.7-12.1 21.4c-7.5.4-12.3 1.4-16.5 2.9z"/><path d="M55 36.1c3.3-8.5 12.2-17.9 21.7-21.2-7.1 10.8-10 17.3-10 17.3S58.5 34 55 36.1z"/><path class="st0" d="M54.3 34.1c3.3-8.5 12.2-17.9 21.7-21.2-7.1 10.8-10 17.3-10 17.3s-8.2 1.8-11.7 3.9z"/><path d="M52.1 30.3S46 33.2 39.9 42c3.4-1.5 6.1-2.6 6.1-2.6l6.1-9.1z"/><path class="st0" d="M51.4 29.2s-6.1 2.9-12.2 11.7c3.4-1.5 6.1-2.6 6.1-2.6l6.1-9.1z"/><path d="M21.8 61.8s-5.6 4.5-10.2 13.6C15 73.9 18 72 18 72l3.8-10.2z"/><path d="M22.2 61S16.6 65.5 12 74.6c3.4-1.5 6.4-3.4 6.4-3.4L22.2 61z" fill="#0064b0"/><path d="M15.2 78.8S6.5 83.3 1.9 92.4c5-1.5 12.2-2.8 12.2-2.8l1.1-10.8z"/><path d="M15 78S6.8 82.2 2.2 91.3c5-1.5 11.5-3.3 11.5-3.3L15 78z" fill="#de3831" stroke="#dc1a0e" stroke-width="1.7" stroke-miterlimit="10"/><path d="M43.5 46.4c-11.3 5-17.1 17.6-19.1 23.3 5.2-1.6 12.5-3.4 12.5-3.4s2.3-8.7 6.6-19.9z"/><linearGradient id="SVGID_3_" gradientUnits="userSpaceOnUse" x1="24.52" y1="57.111" x2="42.823" y2="57.111"><stop offset="0" stop-color="#0972b9"/><stop offset=".157" stop-color="#1878bb"/><stop offset=".434" stop-color="#2b80be"/><stop offset=".715" stop-color="#3784bf"/><stop offset="1" stop-color="#3b86c0"/></linearGradient><path d="M42.8 46.4c-11.3 5-16.2 15.8-18.3 21.5 5.2-1.6 12.1-4.2 12.1-4.2s1.9-6.1 6.2-17.3z" fill="url(#SVGID_3_)" stroke="#086aad" stroke-width="1.7" stroke-miterlimit="10"/><path d="M41.6 66.3c2.2-22.6 19-26.6 22.3-26.6-4.4 11.6-5.8 24.4-5.8 24.4s-10.2.8-16.5 2.2z"/><linearGradient id="SVGID_4_" gradientUnits="userSpaceOnUse" x1="45.733" y1="47.117" x2="59.801" y2="55.238"><stop offset="0" stop-color="#2c82bb"/><stop offset="0" stop-color="#3487bf"/><stop offset="0" stop-color="#3789c1"/><stop offset="1" stop-color="#3684c0"/><stop offset="1" stop-color="#438fc2"/><stop offset="1" stop-color="#4b95c4"/></linearGradient><path d="M40.2 63.7C42.4 41 59.1 37 62.5 37c-4.4 11.6-6.2 24.3-6.2 24.3s-9.9 1-16.1 2.4z" fill="url(#SVGID_4_)" stroke="#086aad" stroke-width="1.7" stroke-miterlimit="10"/><path d="M23.7 75.4c3.5-1.4 6.2-2.1 12.5-4.4-.8 5.8.9 19.6.9 19.6l-16.8-1c.1.1.8-9.8 3.4-14.2z"/><linearGradient id="SVGID_5_" gradientUnits="userSpaceOnUse" x1="20.119" y1="78.706" x2="35.439" y2="78.706"><stop offset="0" stop-color="#e24947"/><stop offset="1" stop-color="#e45b55"/></linearGradient><path d="M23.6 74.3c3.5-1.4 5.6-2 11.9-4.3-.8 5.8 0 17.4 0 17.4H20.1s.9-8.7 3.5-13.1z" fill="url(#SVGID_5_)" stroke="#dc1a0e" stroke-width="1.7" stroke-miterlimit="10"/><path d="M42.1 70.6c4.6-1.1 16.1-1.9 16.1-1.9s1.6 20 3.8 31.1c-14.6-4.6-20.2-8.2-20.2-8.2s-.5-11.5.3-21z"/><linearGradient id="SVGID_6_" gradientUnits="userSpaceOnUse" x1="43.327" y1="67.44" x2="58.8" y2="94.239"><stop offset="0" stop-color="#e2625d"/><stop offset="1" stop-color="#ec837c"/></linearGradient><path d="M40.8 68.9c4.6-1.1 16.1-2.6 16.1-2.6s0 16.6 2.2 27.8c-14.6-4.6-18.3-6.5-18.3-6.5s-.8-9.2 0-18.7z" fill="url(#SVGID_6_)" stroke="#dc1a0e" stroke-width="1.7" stroke-miterlimit="10"/><path d="M64 68.3h18.7s2 23.3 7.7 45.6c-6.9-3-15.2-8.3-23.3-15.1-3-9.8-3.1-30.5-3.1-30.5z"/><linearGradient id="SVGID_7_" gradientUnits="userSpaceOnUse" x1="63.159" y1="65.794" x2="89.625" y2="103.592"><stop offset="0" stop-color="#eb7e7c"/><stop offset="1" stop-color="#f3b4b2"/></linearGradient><path d="M62.5 66.3h18.4s-.8 17.8 4.9 40c-6.9-3-11.9-4.9-19.9-11.8-3-9.8-3.4-28.2-3.4-28.2z" fill="url(#SVGID_7_)" stroke="#dc1a0e" stroke-width="1.7" stroke-miterlimit="10"/><path d="M89.6 68.9l21.7 4.4s4.4 43.1 11.3 62.7c-12.5-7.5-26-18.2-29.2-21.8-3.4-19.8-3.8-45.3-3.8-45.3z"/><linearGradient id="SVGID_8_" gradientUnits="userSpaceOnUse" x1="81.605" y1="71.772" x2="123.427" y2="113.594"><stop offset="0" stop-color="#f0a29c"/><stop offset="1" stop-color="#fbebe8"/></linearGradient><path d="M86.5 66.9l20.6 2.7s.5 34.4 6.4 53.9C101 116 94 112.2 90.8 108.6c-3.5-19.7-4.3-41.7-4.3-41.7z" fill="url(#SVGID_8_)" stroke="#dc1a0e" stroke-width="1.7" stroke-miterlimit="10"/><g id="Layer1001"><path id="path4" class="st11" d="M231.5 14.4h7.3l9.4 32.8h-7.4l-1.6-6.8H230l-1.6 6.8h-6.6l9.7-32.8zm-67.2 0h7.2v13.2h7.9V14.4h7.2v32.8h-7.2V33.8h-7.9v13.4h-7.2V14.4zm104.3 20.8l6.7.4c-.2 3.6-1.4 6.5-3.4 8.7-2 2.2-4.7 3.4-8 3.4-4 0-7.1-1.5-9.2-4.5-2.1-3-3.2-7.1-3.2-12.4s1.1-9.5 3.2-12.5 5.2-4.5 9.4-4.5c6.9 0 10.6 4.2 11.2 12.7l-6.6.5c-.2-4.9-1.7-7.3-4.6-7.3-1.5 0-2.7.8-3.6 2.4s-1.3 4.6-1.3 9.1c0 4 .4 6.8 1.2 8.3.8 1.5 2 2.3 3.7 2.3 2.5 0 4.1-2.2 4.5-6.6zM280 14.4h20.5v6.2h-6.7v26.7h-7.2V20.5H280v-6.1zm-78.3 0h7.3l9.4 32.8H211l-1.6-6.8h-9.2l-1.6 6.8H192l9.7-32.8zm6.3 20.4l-3.3-13.4-3.2 13.4h6.5zm29.8 0l-3.3-13.4-3.2 13.4h6.5z"/><path id="path6" class="st11" d="M212.2 119.7l2.8-3.5v-.9h1.6v7.4H215v-4.5l-2.8 3.5v.9h-1.6v-7.4h1.6v4.5zm-9.1 3v-7.4h1.6v2.8c.3 0 .5 0 .7-.1.1-.1.3-.3.5-.6.1-.1.1-.2.2-.4.4-.8.7-1.3 1-1.5.2-.2.5-.4.9-.4.2 0 .5 0 .7.1v1.2c-.2 0-.3 0-.5.1-.1.1-.2.2-.3.4-.1.1-.1.2-.2.4l-.2.4c-.1.1-.1.3-.2.4-.2.3-.5.5-.8.6.4.1.6.3.8.6.2.3.4.7.6 1.2 0 0 0 .1.1.1 0 .1.1.1.1.2.1.3.3.5.4.6.1.1.3.2.5.2v1.2c-.2.1-.3.1-.6.1s-.6-.1-.8-.3c-.2-.2-.5-.6-.8-1.1 0-.1-.1-.2-.1-.3 0-.1-.1-.2-.1-.3 0-.1-.1-.2-.1-.3-.2-.5-.4-.8-.5-.9l-.3-.3c-.2-.1-.4-.1-.6-.1v3.3l-2 .1zm-6.8-3l2.8-3.5v-.9h1.6v7.4h-1.6v-4.5l-2.8 3.5v.9h-1.6v-7.4h1.6v4.5zm-8.4-.4v3.4h-1.6v-7.4h1.6v2.8h2.7v-2.8h1.6v7.4h-1.6v-3.4h-2.7zm-6.7-2l1.2-2h1.8l-2 3.4 2.3 4h-1.8l-1.5-2.7-1.5 2.7H178l2.3-4-2-3.4h1.8l1.1 2zm-5-.8h-3v1.7h2.5v1.3h-2.5v1.9h3.3v1.2h-5v-7.4h4.6l.1 1.3zm-8.3 0v6.2h-1.6v-6.2h-1.9v-1.2h5.4v1.2h-1.9zm83.1-15.1h.9c.1.3.2.5.3.6.2.2.4.2.6.2s.4-.1.6-.2c.2-.2.3-.4.3-.6h.9c0 .5-.2 1-.6 1.3-.4.3-.8.5-1.3.5s-.9-.2-1.3-.5c-.2-.3-.4-.7-.4-1.3zm.4 6.5l2.8-3.5v-1h1.6v7.4h-1.6v-4.4l-2.8 3.5v.9h-1.6v-7.4h1.6v4.5zm-10.7-.8c0-.4.1-1 .2-1.5.2-.6.5-1.1 1-1.6s1.3-.7 2.3-.7c1.5 0 2.4.4 2.9 1.3s.7 1.7.7 2.5-.2 1.6-.7 2.5c-.5.9-1.4 1.3-2.9 1.3-1 0-1.8-.2-2.3-.7-.5-.5-.9-1-1-1.6-.1-.5-.2-1-.2-1.5zm1.9 0c0 .7.1 1.3.4 1.9.2.5.7.8 1.3.8s1.1-.3 1.3-.8.4-1.1.4-1.9c0-.7-.1-1.3-.4-1.9-.2-.5-.7-.8-1.3-.8s-1.1.3-1.3.8c-.3.6-.4 1.2-.4 1.9zm-8.2.3v3.4h-1.6v-7.4h1.6v2.8h2.7v-2.8h1.6v7.4h-1.6v-3.4h-2.7zm-9.1-4h1.6v2.6h1.1c.4 0 .7 0 1.1.1.3.1.6.2.9.4.3.2.5.4.6.7.2.3.2.7.2 1.1 0 .9-.2 1.5-.7 1.9s-1.2.5-2.1.5h-2.7v-7.3zm1.6 6.2h.5c.4 0 .8-.1 1.1-.2.3-.1.4-.5.4-1 0-.4-.2-.7-.4-.9-.3-.1-.6-.2-1-.2h-.6v2.3zm-5.7-4.9h-1.4c0 1-.1 2-.2 3-.1.9-.3 1.7-.7 2.4-.3.7-.9 1-1.5 1-.2 0-.4 0-.6-.1v-1.2c.4 0 .7-.2.9-.6s.3-.9.4-1.5c.1-.6.1-1.3.1-2.1v-2.2h4.5v7.4h-1.6l.1-6.1zm-6.1 0h-3v1.7h2.5v1.3h-2.5v1.9h3.3v1.2h-5v-7.4h4.6l.1 1.3zm-8.3 0v6.2h-1.6v-6.2h-1.9v-1.3h5.4v1.2l-1.9.1zm-9.6 3.2l2.8-3.5v-1h1.6v7.4H200v-4.4l-2.8 3.5v.9h-1.6v-7.4h1.6v4.5zm-10.8-.8c0-.4.1-1 .2-1.5.2-.6.5-1.1 1-1.6s1.3-.7 2.3-.7c1.5 0 2.4.4 2.9 1.3s.7 1.7.7 2.5-.2 1.6-.7 2.5c-.5.9-1.4 1.3-2.9 1.3-1 0-1.8-.2-2.3-.7-.5-.5-.9-1-1-1.6-.1-.5-.2-1-.2-1.5zm1.9 0c0 .7.1 1.3.4 1.9s.7.8 1.3.8 1.1-.3 1.3-.8.4-1.1.4-1.9c0-.7-.1-1.3-.4-1.9-.2-.5-.7-.8-1.3-.8s-1.1.3-1.3.8c-.2.6-.4 1.2-.4 1.9zm-7.3 1.3v2.4h-1.6v-7.4h2.3c1.1 0 1.9.2 2.4.6.6.4.8 1 .8 2 0 1.6-1 2.4-3 2.4h-.9zm0-1.2h.7c.4 0 .8-.1 1-.3s.4-.5.4-.9c0-.9-.4-1.3-1.4-1.3h-.7v2.5zm-5.3-2.5v6.2h-1.6v-6.2h-1.9v-1.3h5.4v1.2l-1.9.1zm-5-.4l-.8 1c-.6-.5-1.1-.7-1.7-.6-.2 0-.5.1-.7.3-.3.1-.5.4-.7.8s-.3.9-.3 1.5c0 .9.2 1.5.5 1.8s.7.6 1.1.6c.6.1 1.3-.2 1.9-.9l.9.8c-.8 1-1.8 1.5-2.9 1.5-.7 0-1.2-.2-1.8-.5-.5-.3-.9-.8-1.2-1.4-.3-.6-.4-1.3-.4-2 0-1.3.4-2.3 1.1-2.9.7-.7 1.6-1 2.5-1 .5 0 1 .1 1.4.3.4.1.8.4 1.1.7zm88.7-14.7h.9c.1.3.2.5.3.6.2.2.4.2.6.2.2 0 .4-.1.6-.2.2-.2.3-.4.3-.6h.9c0 .5-.2 1-.6 1.3-.4.3-.8.5-1.3.5s-.9-.2-1.3-.5c-.2-.4-.4-.8-.4-1.3zm.4 6.4l2.8-3.5v-.9h1.6V99h-1.7v-4.5l-2.8 3.5v.9h-1.6v-7.4h1.6l.1 4.5zm-3.9-3.2h-3v1.7h2.5v1.3h-2.5v1.9h3.3v1.2h-5v-7.4h4.6l.1 1.3zm-8.7 0h-1.4c0 1-.1 2-.2 3-.1.9-.3 1.7-.7 2.4-.4.7-.9 1-1.5 1-.2 0-.4 0-.6-.1v-1.2c.4 0 .7-.2.9-.6s.3-.9.4-1.5.1-1.3.1-2.1v-2h4.5v7.4h-1.6l.1-6.3zm-6 0h-3v1.7h2.5v1.3h-2.5v1.9h3.3v1.2h-5v-7.4h4.6l.1 1.3zm-8.4 0V99h-1.6v-6.2h-1.9v-1.2h5.4v1.2h-1.9zm-9.6 4.6l-.6 1.5H221l2.8-7.4h1.5l2.8 7.4h-1.6l-.6-1.6-2.7.1zm.4-1.2h1.8l-.9-2.3-.9 2.3zm-4.5 1.6h.6v3h-1.5V99H214v1.8h-1.5v-3h.7c.4-.6.6-1.2.8-1.8.2-.6.3-1.2.3-1.8v-2.5h4.7l.1 6.1zm-3.1-5c0 1-.1 1.9-.2 2.7-.1.7-.4 1.5-.8 2.3h2.5v-5H216zm-11.9 2.5c0-.4.1-1 .2-1.5.2-.6.5-1.1 1-1.6s1.3-.7 2.3-.7c1.5 0 2.4.4 2.9 1.3s.7 1.7.7 2.5-.2 1.6-.7 2.5c-.5.9-1.4 1.3-2.9 1.3-1 0-1.8-.2-2.3-.7-.5-.5-.9-1-1-1.6-.1-.6-.2-1.1-.2-1.5zm1.9 0c0 .7.1 1.3.4 1.9.2.5.7.8 1.3.8.6 0 1.1-.3 1.3-.8s.4-1.1.4-1.9c0-.7-.1-1.3-.4-1.9-.2-.5-.7-.8-1.3-.8-.6 0-1.1.3-1.3.8-.3.5-.4 1.2-.4 1.9zm-4 2.5h.6v3h-1.5V99h-4.2v1.8h-1.5v-3h.7c.4-.6.6-1.2.8-1.8.2-.6.3-1.2.3-1.8v-2.5h4.7l.1 6.1zm-3-5c0 1-.1 1.9-.2 2.7-.1.7-.4 1.5-.8 2.3h2.5v-5H199zm-9.6 2.8V99h-1.6v-7.4h1.6v2.8h2.7v-2.8h1.6V99h-1.6v-3.4h-2.7zm-3.9-2.8h-3v1.7h2.5v1.3h-2.5v1.9h3.3v1.2h-5v-7.4h4.6l.1 1.3zM175 96.6V99h-1.6v-7.4h2.3c1.1 0 1.9.2 2.4.6.6.4.8 1 .8 2 0 1.6-1 2.4-3 2.4h-.9zm0-1.3h.7c.4 0 .8-.1 1-.3.2-.2.4-.5.4-.9 0-.9-.4-1.3-1.4-1.3h-.7v2.5zm-8.4 2.1l-.6 1.5h-1.6l2.8-7.4h1.5l2.8 7.4h-1.6l-.6-1.6-2.7.1zm.5-1.2h1.8l-.9-2.3-.9 2.3zm72.4-9V86c.2 0 .4-.1.5-.2 0 0 .1-.2.3-.5.2-.4.4-.7.6-.9.2-.2.4-.4.8-.5-.4-.1-.8-.3-1.2-.6s-.5-.8-.5-1.4c0-.6.2-1.1.6-1.5.4-.4 1.1-.6 2.1-.6h2.9v7.4H244v-2.9h-.5c-.3 0-.6.1-.7.2-.1.1-.3.3-.5.7-.3.7-.6 1.2-1 1.6-.3.4-.7.6-1.2.6-.2-.1-.4-.1-.6-.2zm4.4-6.3h-.8c-.4 0-.7.1-1 .2-.3.1-.4.4-.4.8 0 .7.4 1 1.2 1h1v-2zm-10.6 3.3l2.8-3.5v-.9h1.6v7.4h-1.6v-4.5l-2.8 3.5v.9h-1.6v-7.4h1.6v4.5zm-8.6 1.7h2.7v-6.2h1.6v6.2h.9v3h-1.4v-1.8h-5.4v-7.4h1.6v6.2zm-8.4-.3l-.6 1.5h-1.6l2.8-7.4h1.5l2.8 7.4h-1.6l-.6-1.6-2.7.1zm.5-1.3h1.8l-.9-2.3-.9 2.3zm-8.9-.1l2.8-3.5v-.9h1.6v7.4h-1.6v-4.5l-2.8 3.5v.9h-1.6v-7.4h1.6v4.5zm-8.6 1.7h2.7v-6.2h1.6v6.2h.9v3h-1.4v-1.8h-5.4v-7.4h1.6v6.2zm-10.8-2.5c0-.4.1-1 .2-1.5.2-.6.5-1.1 1-1.6s1.3-.7 2.3-.7c1.5 0 2.4.4 2.9 1.3s.7 1.7.7 2.5-.2 1.6-.7 2.5c-.5.9-1.4 1.3-2.9 1.3-1 0-1.8-.2-2.3-.7-.5-.5-.9-1-1-1.6-.1-.5-.2-1-.2-1.5zm1.9 0c0 .7.1 1.3.4 1.9.3.6.7.8 1.3.8s1.1-.3 1.3-.8c.2-.5.4-1.1.4-1.9 0-.7-.1-1.3-.4-1.9-.2-.5-.7-.8-1.3-.8s-1.1.3-1.3.8-.4 1.2-.4 1.9zm-3.6-2.8l-.8 1c-.6-.5-1.1-.7-1.7-.6-.2 0-.5.1-.7.3-.3.1-.5.4-.7.8-.2.4-.3.9-.3 1.5 0 .9.2 1.5.5 1.8s.7.6 1.1.6c.6.1 1.3-.2 1.9-.9l.9.8c-.8 1-1.8 1.5-2.9 1.5-.7 0-1.2-.2-1.8-.5-.5-.3-.9-.8-1.2-1.4-.3-.6-.4-1.3-.4-2 0-1.3.4-2.3 1.1-2.9.7-.7 1.6-1 2.5-1 .5 0 1 .1 1.4.3.5.1.8.4 1.1.7zm-7.8 0l-.8 1c-.6-.5-1.1-.7-1.7-.6-.2 0-.5.1-.7.3-.3.1-.5.4-.7.8-.2.4-.3.9-.3 1.5 0 .9.2 1.5.5 1.8.3.3.7.6 1.1.6.6.1 1.3-.2 1.9-.9l.9.8c-.8 1-1.8 1.5-2.9 1.5-.7 0-1.2-.2-1.8-.5-.5-.3-.9-.8-1.2-1.4-.3-.6-.4-1.3-.4-2 0-1.3.4-2.3 1.1-2.9.7-.7 1.6-1 2.5-1 .5 0 1 .1 1.4.3.5.1.9.4 1.1.7zm-12.4 5l-.6 1.5h-1.6l2.8-7.4h1.5l2.8 7.4h-1.6l-.6-1.6-2.7.1zm.5-1.3h1.8L168 82l-.9 2.3zm87.8-9v-1.2c.2 0 .4-.1.5-.2 0 0 .1-.2.3-.5.2-.4.4-.7.6-.9.2-.2.4-.4.8-.5-.4-.1-.8-.3-1.2-.6-.4-.3-.5-.8-.5-1.4 0-.6.2-1.1.6-1.5.4-.4 1.1-.6 2.1-.6h2.9v7.4h-1.6v-2.9h-.4c-.3 0-.6.1-.7.2-.1.1-.3.3-.5.7-.3.7-.6 1.2-1 1.6-.3.4-.7.6-1.2.6-.3-.1-.5-.1-.7-.2zm4.4-6.2h-.8c-.4 0-.7.1-1 .2-.3.1-.4.4-.4.8 0 .7.4 1 1.2 1h1v-2zm-10.6 4.6l-.6 1.5h-1.6l2.8-7.4h1.5l2.8 7.4H252l-.6-1.6-2.7.1zm.5-1.2h1.8l-.9-2.3-.9 2.3zm-8.8-.6v3.4h-1.6v-7.4h1.6v2.8h2.7v-2.8h1.6v7.4h-1.6v-3.4h-2.7zm-9.1-4h1.6v2.6h1.1c.4 0 .7 0 1.1.1.3.1.6.2.9.4.3.2.5.4.6.7.2.3.2.7.2 1.1 0 .9-.2 1.5-.7 1.9-.5.4-1.2.5-2.1.5h-2.7v-7.3zm1.6 6.1h.5c.4 0 .8-.1 1.1-.2.3-.1.4-.5.4-1 0-.4-.2-.7-.4-.9-.3-.1-.6-.2-1-.2h-.6V74zm-5.6-4.9h-1.4c0 1-.1 2-.2 3-.1.9-.3 1.7-.7 2.4-.3.7-.9 1-1.5 1-.2 0-.4 0-.6-.1v-1.2c.4 0 .7-.2.9-.6.2-.4.3-.9.4-1.5.1-.6.1-1.3.1-2.1v-2h4.5v7.4h-1.6l.1-6.3zm-10.6 4.6l-.6 1.5h-1.6l2.8-7.4h1.5l2.8 7.4H220l-.6-1.6-2.7.1zm.5-1.2h1.8l-.9-2.3-.9 2.3zm-8.8-.6v3.4h-1.6v-7.4h1.6v2.8h2.7v-2.8h1.6v7.4h-1.6v-3.4h-2.7zm-10.8-.3c0-.4.1-1 .2-1.5.2-.6.5-1.1 1-1.6s1.3-.7 2.3-.7c1.5 0 2.4.4 2.9 1.3s.7 1.7.7 2.5-.2 1.6-.7 2.5c-.5.9-1.4 1.3-2.9 1.3-1 0-1.8-.2-2.3-.7-.5-.5-.9-1-1-1.6-.1-.6-.2-1.1-.2-1.5zm1.9 0c0 .7.1 1.3.4 1.9.2.5.7.8 1.3.8s1.1-.3 1.3-.8c.2-.5.4-1.1.4-1.9 0-.7-.1-1.3-.4-1.9-.2-.5-.7-.8-1.3-.8s-1.1.3-1.3.8c-.3.5-.4 1.1-.4 1.9zm-8.2.7l2.8-3.5v-.9h1.6v7.4h-1.6v-4.5l-2.8 3.5v.9h-1.6v-7.4h1.6v4.5zm-8.7 1.7h2.7v-6.2h1.6V74h.9v3h-1.4v-1.8H181v-7.4h1.6V74zm-8.4-.3l-.6 1.5H172l2.8-7.4h1.5l2.8 7.4h-1.6l-.6-1.6-2.7.1zm.5-1.2h1.8l-.9-2.3-.9 2.3zm-8.8-.6v3.4h-1.6v-7.4h1.6v2.8h2.7v-2.8h1.6v7.4h-1.6v-3.4h-2.7z"/></g><path id="path9" class="st11" d="M141.5 13.9v110h-2.1v-110h2.1z"/></svg>