<?xml version="1.0" encoding="utf-8"?>
<!-- Generator: Adobe Illustrator 19.0.0, SVG Export Plug-In . SVG Version: 6.00 Build 0)  -->
<svg version="1.1" id="Слой_1" xmlns="http://www.w3.org/2000/svg" xmlns:xlink="http://www.w3.org/1999/xlink" x="0px" y="0px"
	 viewBox="0 0 188 85" style="enable-background:new 0 0 188 85;" xml:space="preserve">
<style type="text/css">
	.st0{fill-rule:evenodd;clip-rule:evenodd;fill:#F2C144;}
	.st1{fill-rule:evenodd;clip-rule:evenodd;fill:#1A1919;}
</style>
<polygon id="XMLID_36_" class="st0" points="69.8,63.1 74.4,63.1 187.1,63.1 188,67.8 69.8,67.8 "/>
<polygon id="XMLID_35_" class="st0" points="0,67.8 0.9,63.1 54.1,63.1 54.1,67.8 "/>
<path id="XMLID_32_" class="st1" d="M17.9,43.7h15.4l-7.5-14.2L17.9,43.7z M35.1,31.7l0.9,1.6l-0.3-0.5l1,1.7l18.7-21l-18.7,21
	l1.7,3l11.5,20h-9.1L36.7,50H14.6l-4,7.5H2.5l19.7-34.8H30L35.1,31.7z"/>
<polygon id="XMLID_31_" class="st1" points="165.2,29.1 181.2,29.1 181.2,22.8 141.1,22.8 141.1,29.1 157.1,29.1 157.1,57.6 
	165.2,57.6 "/>
<path id="XMLID_30_" class="st1" d="M129.6,29.1v6.6l8.1-1.3V31c0-1.5,0-4.7-1.9-6.5c-1.7-1.6-4.5-1.7-6.7-1.7h-20.8
	c-2.2,0-5.1,0.1-6.7,1.7c-1.9,1.8-1.9,5.1-1.9,6.5v18.3c0,1.5,0,4.7,1.9,6.5c1.7,1.6,4.5,1.7,6.7,1.7h20.8c2.2,0,5.1-0.1,6.7-1.7
	c1.9-1.8,1.9-5.1,1.9-6.5v-4l-8.1-1.7v7.5h-21.8V29.1H129.6z"/>
<polygon id="XMLID_29_" class="st1" points="55.7,22.8 55.7,67.8 63.8,67.8 63.8,28.7 "/>
<path id="XMLID_26_" class="st0" d="M90,31.7c0.3,0.3,0.2,0.8-0.1,1.1C89.5,33,89,33,88.8,32.6L66.7,5.5c-0.3-0.3-0.2-0.8,0.1-1.1
	c0.3-0.3,0.8-0.2,1.1,0.1L90,31.7z M67.5,47.4c0-0.1,0,0-0.1,0.4c1.4,2.3,2.7,4.2,3.9,5.7c5.1,2,8.9,2.9,11.2,3
	c3-0.3,5.2-2.5,6.4-6.5c3-5.8,5.3-10.1,6.8-13c-0.4-1.3-1.6-2.6-3.5-3.7c-6.3-7.9-12.3-15.5-17.9-23c-4-5.5-7.2-8.5-9.5-9.1
	c-1.1-0.5-2.3-0.8-3.3-0.9c-2.3-0.2-2.5-0.2-1.9,1.9c0.3,1.3,0.9,2.2,1.6,2.9c-2.9,2.3-4.7,4-5.4,5.2c-1.6-0.2-3.1,1-4.6,3.5
	c-3.2,3.4-10.9,12.1-16,18l0.9,1.6l18.4-20.7c0.3-0.3,0.7-0.3,1,0c0.3,0.2,0.3,0.7,0,1l-18.7,21l2.7,4.6
	c3.5-4.6,14.4-17.7,17.4-21.2c1-1.4,1.9-2.5,2.7-3.3c0.5,0.4,0,0-1.4-1.2c1.7-1.7,3.1-2.7,4-3.1l0.7,0.4c-0.1-0.2-0.1-0.3-0.1-0.5
	C62.7,9.6,63.3,9,64,9c0.7,0,1.3,0.6,1.3,1.3c0,0.6-0.5,1.2-1.1,1.3c5.6,3,9.6,5.1,11.9,6.3c0,2,0.8,3.7,2.3,4.9H55.7l8.1,5.9h17.8
	c1.3,0,2.2,0.1,2.8,0.5l0,0c3.4,4.1,5.4,6.7,6,7.8c-2.8,5.6-5.6,8.9-8.2,10.1l-7.3,0.1l1.9,2.9l-0.8,0.5l-2.2-3.4l-1.7,0l2.1,3.3
	l-0.8,0.5l-2.4-3.8l-1.4,0l2.4,3.8l-0.8,0.5l-2.8-4.3C67.6,47.4,67.3,47.4,67.5,47.4"/>
<path id="XMLID_4_" class="st1" d="M181.2,82.1v-7.3H180l-5.1,4.3c-0.2,0.2-0.4,0.3-0.5,0.4c-0.1,0.1-0.2,0.2-0.4,0.4
	c0-0.1,0-0.3,0-0.5c0-0.2,0-0.3,0-0.4c0-0.1,0-0.2,0-0.4v-3.8h-1.5v7.3h1.2l5.4-4.5c0.2-0.1,0.3-0.2,0.3-0.3
	c0.1-0.1,0.2-0.2,0.3-0.3c0,0.1,0,0.2,0,0.3c0,0.1,0,0.2,0,0.3c0,0.1,0,0.3,0,0.5v3.9H181.2z M162.3,82.1v-7.3h1.7v3l4-3h2.5
	l-4.8,3.4l5.4,3.9h-2.7l-4.4-3.2v3.2H162.3z M160.5,82.1v-7.3h-1.2l-5.1,4.3c-0.2,0.2-0.4,0.3-0.5,0.4c-0.1,0.1-0.2,0.2-0.4,0.4
	c0-0.1,0-0.3,0-0.5c0-0.2,0-0.3,0-0.4c0-0.1,0-0.2,0-0.4v-3.8h-1.5v7.3h1.2l5.4-4.5c0.2-0.1,0.3-0.2,0.3-0.3
	c0.1-0.1,0.2-0.2,0.3-0.3c0,0.1,0,0.2,0,0.3c0,0.1,0,0.2,0,0.3c0,0.1,0,0.3,0,0.5v3.9H160.5z M141.3,82.1v-7.3h1.7v2.8h5.3v-2.8h1.7
	v7.3h-1.7V79H143v3.1H141.3z M130.4,82.1l3.5-3.7l-3.5-3.5h2.2l2.3,2.5l2.2-2.5h2l-3.2,3.3l3.9,3.9h-2.3l-2.7-2.8l-2.5,2.8H130.4z
	 M121.4,82.1v-7.3h7.5v1.2h-5.8v1.6h3.4v1.2h-3.4v1.8h5.8v1.4H121.4z M117.1,76.1v6h-1.7v-6h-3.3v-1.3h8.4v1.3H117.1z M102.7,74.8
	v5.9h4.8v-5.9h1.7v5.9h1.6v2.5h-1.6v-1.1h-6.4c-0.7,0-1.2-0.1-1.4-0.4c-0.3-0.2-0.4-0.7-0.4-1.4v-5.6H102.7z M91.4,82.1v-7.3h7.5
	v1.2h-5.8v1.6h3.4v1.2h-3.4v1.8H99v1.4H91.4z M82.9,82.1v-5.9h4.8v5.9h1.7v-7.3h-8.2v7.3H82.9z M77.7,76.1h-4.6v4.6h4.6v-1.6
	l1.7,0.3v0.9c0,0.7-0.1,1.1-0.4,1.4c-0.3,0.2-0.7,0.4-1.4,0.4h-4.4c-0.7,0-1.2-0.1-1.4-0.4c-0.2-0.2-0.4-0.7-0.4-1.4v-3.8
	c0-0.7,0.1-1.1,0.4-1.3c0.3-0.2,0.7-0.4,1.4-0.4h4.4c0.7,0,1.2,0.1,1.4,0.4c0.2,0.2,0.4,0.7,0.4,1.3v0.7l-1.7,0.3V76.1z M55.7,82.1
	l4.1-7.3h1.6l4.2,7.3h-1.9l-0.9-1.6h-4.6l-0.8,1.6H55.7z M59,79.2h3.2l-1.6-3L59,79.2z M54.7,82.1v-1.4h-0.9v-5.9h-4.7
	c-1.3,0-2.4,0.3-3.1,0.9c-0.7,0.6-1.1,1.5-1.1,2.7v2.3H44v1.4H54.7z M52.1,80.7h-5.4v-2.3c0-0.7,0.2-1.3,0.7-1.7
	c0.4-0.4,1-0.6,1.8-0.6h3V80.7z M33.6,82.1v-7.3h1.7v2.8h5.3v-2.8h1.7v7.3h-1.7V79h-5.3v3.1H33.6z M24.3,82.1v-7.3h7.5v1.2H26v1.6
	h3.4v1.2H26v1.8h5.8v1.4H24.3z M13.9,82.1v-7.3h6.2c0.6,0,1,0.1,1.3,0.3c0.3,0.2,0.4,0.6,0.4,1.1v1.6c0,0.5-0.1,0.8-0.4,1.1
	c-0.3,0.2-0.7,0.3-1.3,0.3h-4.6v2.8H13.9z M19.4,76.1h-3.8V78h3.8c0.3,0,0.5,0,0.6-0.1c0.1-0.1,0.2-0.2,0.2-0.5v-0.8
	c0-0.2-0.1-0.4-0.2-0.5C19.9,76.1,19.7,76.1,19.4,76.1 M2.5,82.1l4.1-7.3h1.6l4.2,7.3h-1.9l-0.9-1.6H5l-0.8,1.6H2.5z M5.7,79.2h3.2
	l-1.6-3L5.7,79.2z"/>
</svg>
