<?xml version="1.0" encoding="utf-8"?>
<!-- Generator: Adobe Illustrator 25.3.1, SVG Export Plug-In . SVG Version: 6.00 Build 0)  -->
<svg version="1.1" id="Слой_1" xmlns="http://www.w3.org/2000/svg" xmlns:xlink="http://www.w3.org/1999/xlink" x="0px" y="0px"
	 viewBox="0 0 300 136" style="enable-background:new 0 0 300 136;" xml:space="preserve">
<style type="text/css">
	.st0{fill:#FFFFFF;}
	.st1{fill:url(#SVGID_1_);stroke:#086AAD;stroke-width:1.7;stroke-miterlimit:10;}
	.st2{fill:url(#SVGID_2_);stroke:#086AAD;stroke-width:1.7;stroke-miterlimit:10;}
	.st3{fill:#0064B0;}
	.st4{fill:#DE3831;stroke:#DC1A0E;stroke-width:1.7;stroke-miterlimit:10;}
	.st5{fill:url(#SVGID_3_);stroke:#086AAD;stroke-width:1.7;stroke-miterlimit:10;}
	.st6{fill:url(#SVGID_4_);stroke:#086AAD;stroke-width:1.7;stroke-miterlimit:10;}
	.st7{fill:url(#SVGID_5_);stroke:#DC1A0E;stroke-width:1.7;stroke-miterlimit:10;}
	.st8{fill:url(#SVGID_6_);stroke:#DC1A0E;stroke-width:1.7;stroke-miterlimit:10;}
	.st9{fill:url(#SVGID_7_);stroke:#DC1A0E;stroke-width:1.7;stroke-miterlimit:10;}
	.st10{fill:url(#SVGID_8_);stroke:#DC1A0E;stroke-width:1.7;stroke-miterlimit:10;}
	.st11{fill:#1A1919;}
</style>
<path d="M110.7,2.4c5.4,0,18,0,18,0s-7.5,9.3-13.1,22.8c-3,0-19.7,0-19.7,0S102.7,10.3,110.7,2.4z"/>
<path class="st0" d="M110,0.9c5.4,0,18,0,18,0s-7.5,9.3-13.1,22.8c-3,0-19.7,0-19.7,0S102.1,8.7,110,0.9z"/>
<path d="M73.5,34.1c4.8-2.3,15.7-2.3,15.7-2.3s-5.4,16.9-5.3,31.5c-3,0-19.2,0-19.2,0S65,46.9,73.5,34.1z"/>
<linearGradient id="SVGID_1_" gradientUnits="userSpaceOnUse" x1="67.0333" y1="40.3393" x2="85.7081" y2="51.1212">
	<stop  offset="0" style="stop-color:#4B92C1"/>
	<stop  offset="1" style="stop-color:#79AED3"/>
</linearGradient>
<path class="st1" d="M71.2,33.3C76,31,87,30.3,87,30.3s-6.3,14.6-6.1,29.2c-3,0-18.1,0-18.1,0S62.7,46.1,71.2,33.3z"/>
<path d="M95.4,30.7c6.9-0.8,19.1-0.5,19.1-0.5s-4.3,19.9-3.8,38.7c-22.4-0.5-24.5-6.2-24.5-6.2S89,41.8,95.4,30.7z"/>
<linearGradient id="SVGID_2_" gradientUnits="userSpaceOnUse" x1="89.4083" y1="39.0662" x2="113.1793" y2="52.7904">
	<stop  offset="0" style="stop-color:#4B92C1"/>
	<stop  offset="1" style="stop-color:#79AED3"/>
</linearGradient>
<path class="st2" d="M94.7,29.9c6.9-0.8,17.8-0.5,17.8-0.5s-5.4,14.1-4.8,32.9c-3,0-20.2-1.4-20.2-1.4S88.2,41.1,94.7,29.9z"/>
<path d="M73.7,29.5c8.9-24.6,28.6-24.2,28.6-24.2s-8.1,8.7-12.1,21.4C82.7,27,77.8,28,73.7,29.5z"/>
<path class="st0" d="M72.9,27.7C81.8,3,101.5,3.4,101.5,3.4s-8.1,8.7-12.1,21.4C81.9,25.2,77.1,26.2,72.9,27.7z"/>
<path d="M55,36.1c3.3-8.5,12.2-17.9,21.7-21.2c-7.1,10.8-10,17.3-10,17.3S58.5,34,55,36.1z"/>
<path class="st0" d="M54.3,34.1c3.3-8.5,12.2-17.9,21.7-21.2c-7.1,10.8-10,17.3-10,17.3S57.8,32,54.3,34.1z"/>
<path d="M52.1,30.3c0,0-6.1,2.9-12.2,11.7c3.4-1.5,6.1-2.6,6.1-2.6L52.1,30.3z"/>
<path class="st0" d="M51.4,29.2c0,0-6.1,2.9-12.2,11.7c3.4-1.5,6.1-2.6,6.1-2.6L51.4,29.2z"/>
<path d="M21.8,61.8c0,0-5.6,4.5-10.2,13.6c3.4-1.5,6.4-3.4,6.4-3.4L21.8,61.8z"/>
<path class="st3" d="M22.2,61c0,0-5.6,4.5-10.2,13.6c3.4-1.5,6.4-3.4,6.4-3.4L22.2,61z"/>
<path d="M15.2,78.8c0,0-8.7,4.5-13.3,13.6c5-1.5,12.2-2.8,12.2-2.8L15.2,78.8z"/>
<path class="st4" d="M15,78c0,0-8.2,4.2-12.8,13.3c5-1.5,11.5-3.3,11.5-3.3L15,78z"/>
<path d="M43.5,46.4c-11.3,5-17.1,17.6-19.1,23.3c5.2-1.6,12.5-3.4,12.5-3.4S39.2,57.6,43.5,46.4z"/>
<linearGradient id="SVGID_3_" gradientUnits="userSpaceOnUse" x1="24.52" y1="57.1109" x2="42.8232" y2="57.1109">
	<stop  offset="0" style="stop-color:#0972B9"/>
	<stop  offset="0.1567" style="stop-color:#1878BB"/>
	<stop  offset="0.4342" style="stop-color:#2B80BE"/>
	<stop  offset="0.7145" style="stop-color:#3784BF"/>
	<stop  offset="1" style="stop-color:#3B86C0"/>
</linearGradient>
<path class="st5" d="M42.8,46.4c-11.3,5-16.2,15.8-18.3,21.5c5.2-1.6,12.1-4.2,12.1-4.2S38.5,57.6,42.8,46.4z"/>
<path d="M41.6,66.3c2.2-22.6,19-26.6,22.3-26.6c-4.4,11.6-5.8,24.4-5.8,24.4S47.9,64.9,41.6,66.3z"/>
<linearGradient id="SVGID_4_" gradientUnits="userSpaceOnUse" x1="45.7333" y1="47.1165" x2="59.8007" y2="55.2383">
	<stop  offset="0" style="stop-color:#2C82BB"/>
	<stop  offset="0" style="stop-color:#3487BF"/>
	<stop  offset="0" style="stop-color:#3789C1"/>
	<stop  offset="1" style="stop-color:#3684C0"/>
	<stop  offset="1" style="stop-color:#438FC2"/>
	<stop  offset="1" style="stop-color:#4B95C4"/>
</linearGradient>
<path class="st6" d="M40.2,63.7C42.4,41,59.1,37,62.5,37c-4.4,11.6-6.2,24.3-6.2,24.3S46.4,62.3,40.2,63.7z"/>
<path d="M23.7,75.4c3.5-1.4,6.2-2.1,12.5-4.4c-0.8,5.8,0.9,19.6,0.9,19.6l-16.8-1C20.4,89.7,21.1,79.8,23.7,75.4z"/>
<linearGradient id="SVGID_5_" gradientUnits="userSpaceOnUse" x1="20.119" y1="78.706" x2="35.4391" y2="78.706">
	<stop  offset="0" style="stop-color:#E24947"/>
	<stop  offset="1" style="stop-color:#E45B55"/>
</linearGradient>
<path class="st7" d="M23.6,74.3c3.5-1.4,5.6-2,11.9-4.3c-0.8,5.8,0,17.4,0,17.4H20.1C20.1,87.4,21,78.7,23.6,74.3z"/>
<path d="M42.1,70.6c4.6-1.1,16.1-1.9,16.1-1.9s1.6,20,3.8,31.1c-14.6-4.6-20.2-8.2-20.2-8.2S41.3,80.1,42.1,70.6z"/>
<linearGradient id="SVGID_6_" gradientUnits="userSpaceOnUse" x1="43.3268" y1="67.4398" x2="58.7995" y2="94.2393">
	<stop  offset="0" style="stop-color:#E2625D"/>
	<stop  offset="1" style="stop-color:#EC837C"/>
</linearGradient>
<path class="st8" d="M40.8,68.9c4.6-1.1,16.1-2.6,16.1-2.6s0,16.6,2.2,27.8c-14.6-4.6-18.3-6.5-18.3-6.5S40,78.4,40.8,68.9z"/>
<path d="M64,68.3h18.7c0,0,2,23.3,7.7,45.6c-6.9-3-15.2-8.3-23.3-15.1C64.1,89,64,68.3,64,68.3z"/>
<linearGradient id="SVGID_7_" gradientUnits="userSpaceOnUse" x1="63.1589" y1="65.7944" x2="89.6251" y2="103.5919">
	<stop  offset="0" style="stop-color:#EB7E7C"/>
	<stop  offset="1" style="stop-color:#F3B4B2"/>
</linearGradient>
<path class="st9" d="M62.5,66.3h18.4c0,0-0.8,17.8,4.9,40c-6.9-3-11.9-4.9-19.9-11.8C62.9,84.7,62.5,66.3,62.5,66.3z"/>
<path d="M89.6,68.9l21.7,4.4c0,0,4.4,43.1,11.3,62.7c-12.5-7.5-26-18.2-29.2-21.8C90,94.4,89.6,68.9,89.6,68.9z"/>
<linearGradient id="SVGID_8_" gradientUnits="userSpaceOnUse" x1="81.6052" y1="71.7719" x2="123.4269" y2="113.5937">
	<stop  offset="0" style="stop-color:#F0A29C"/>
	<stop  offset="1" style="stop-color:#FBEBE8"/>
</linearGradient>
<path class="st10" d="M86.5,66.9l20.6,2.7c0,0,0.5,34.4,6.4,53.9C101,116,94,112.2,90.8,108.6C87.3,88.9,86.5,66.9,86.5,66.9z"/>
<g id="Layer1001">
	<path id="path4" class="st11" d="M231.5,14.4h7.3l9.4,32.8h-7.4l-1.6-6.8H230l-1.6,6.8h-6.6L231.5,14.4z M164.3,14.4h7.2v13.2h7.9
		V14.4h7.2v32.8h-7.2V33.8h-7.9v13.4h-7.2V14.4z M268.6,35.2l6.7,0.4c-0.2,3.6-1.4,6.5-3.4,8.7c-2,2.2-4.7,3.4-8,3.4
		c-4,0-7.1-1.5-9.2-4.5c-2.1-3-3.2-7.1-3.2-12.4s1.1-9.5,3.2-12.5c2.1-3,5.2-4.5,9.4-4.5c6.9,0,10.6,4.2,11.2,12.7l-6.6,0.5
		c-0.2-4.9-1.7-7.3-4.6-7.3c-1.5,0-2.7,0.8-3.6,2.4s-1.3,4.6-1.3,9.1c0,4,0.4,6.8,1.2,8.3c0.8,1.5,2,2.3,3.7,2.3
		C266.6,41.8,268.2,39.6,268.6,35.2L268.6,35.2z M280,14.4h20.5v6.2h-6.7v26.7h-7.2V20.5H280L280,14.4L280,14.4z M201.7,14.4h7.3
		l9.4,32.8H211l-1.6-6.8h-9.2l-1.6,6.8H192L201.7,14.4z M208,34.8l-3.3-13.4l-3.2,13.4H208z M237.8,34.8l-3.3-13.4l-3.2,13.4H237.8z
		"/>
	<path id="path6" class="st11" d="M212.2,119.7l2.8-3.5v-0.9h1.6v7.4H215v-4.5l-2.8,3.5v0.9h-1.6v-7.4h1.6V119.7z M203.1,122.7v-7.4
		h1.6v2.8c0.3,0,0.5,0,0.7-0.1c0.1-0.1,0.3-0.3,0.5-0.6c0.1-0.1,0.1-0.2,0.2-0.4c0.4-0.8,0.7-1.3,1-1.5c0.2-0.2,0.5-0.4,0.9-0.4
		c0.2,0,0.5,0,0.7,0.1v1.2c-0.2,0-0.3,0-0.5,0.1c-0.1,0.1-0.2,0.2-0.3,0.4c-0.1,0.1-0.1,0.2-0.2,0.4c-0.1,0.2-0.2,0.4-0.2,0.4
		c-0.1,0.1-0.1,0.3-0.2,0.4c-0.2,0.3-0.5,0.5-0.8,0.6c0.4,0.1,0.6,0.3,0.8,0.6c0.2,0.3,0.4,0.7,0.6,1.2c0,0,0,0.1,0.1,0.1
		c0,0.1,0.1,0.1,0.1,0.2c0.1,0.3,0.3,0.5,0.4,0.6c0.1,0.1,0.3,0.2,0.5,0.2v1.2c-0.2,0.1-0.3,0.1-0.6,0.1c-0.3,0-0.6-0.1-0.8-0.3
		c-0.2-0.2-0.5-0.6-0.8-1.1c0-0.1-0.1-0.2-0.1-0.3c0-0.1-0.1-0.2-0.1-0.3c0-0.1-0.1-0.2-0.1-0.3c-0.2-0.5-0.4-0.8-0.5-0.9
		c-0.1-0.1-0.2-0.2-0.3-0.3c-0.2-0.1-0.4-0.1-0.6-0.1v3.3L203.1,122.7z M196.3,119.7l2.8-3.5v-0.9h1.6v7.4h-1.6v-4.5l-2.8,3.5v0.9
		h-1.6v-7.4h1.6V119.7z M187.9,119.3v3.4h-1.6v-7.4h1.6v2.8h2.7v-2.8h1.6v7.4h-1.6v-3.4H187.9z M181.2,117.3l1.2-2h1.8l-2,3.4l2.3,4
		h-1.8l-1.5-2.7l-1.5,2.7H178l2.3-4l-2-3.4h1.8L181.2,117.3z M176.2,116.5h-3v1.7h2.5v1.3h-2.5v1.9h3.3v1.2h-5v-7.4h4.6L176.2,116.5
		L176.2,116.5z M167.9,116.5v6.2h-1.6v-6.2h-1.9v-1.2h5.4v1.2H167.9z M251,101.4h0.9c0.1,0.3,0.2,0.5,0.3,0.6
		c0.2,0.2,0.4,0.2,0.6,0.2s0.4-0.1,0.6-0.2c0.2-0.2,0.3-0.4,0.3-0.6h0.9c0,0.5-0.2,1-0.6,1.3c-0.4,0.3-0.8,0.5-1.3,0.5
		s-0.9-0.2-1.3-0.5C251.2,102.4,251,102,251,101.4z M251.4,107.9l2.8-3.5v-1h1.6v7.4h-1.6v-4.4l-2.8,3.5v0.9h-1.6v-7.4h1.6V107.9z
		 M240.7,107.1c0-0.4,0.1-1,0.2-1.5c0.2-0.6,0.5-1.1,1-1.6c0.5-0.5,1.3-0.7,2.3-0.7c1.5,0,2.4,0.4,2.9,1.3s0.7,1.7,0.7,2.5
		c0,0.8-0.2,1.6-0.7,2.5c-0.5,0.9-1.4,1.3-2.9,1.3c-1,0-1.8-0.2-2.3-0.7c-0.5-0.5-0.9-1-1-1.6C240.8,108.1,240.7,107.6,240.7,107.1
		L240.7,107.1z M242.6,107.1c0,0.7,0.1,1.3,0.4,1.9c0.2,0.5,0.7,0.8,1.3,0.8s1.1-0.3,1.3-0.8s0.4-1.1,0.4-1.9c0-0.7-0.1-1.3-0.4-1.9
		c-0.2-0.5-0.7-0.8-1.3-0.8s-1.1,0.3-1.3,0.8C242.7,105.8,242.6,106.4,242.6,107.1z M234.4,107.4v3.4h-1.6v-7.4h1.6v2.8h2.7v-2.8
		h1.6v7.4h-1.6v-3.4H234.4z M225.3,103.4h1.6v2.6h1.1c0.4,0,0.7,0,1.1,0.1c0.3,0.1,0.6,0.2,0.9,0.4c0.3,0.2,0.5,0.4,0.6,0.7
		c0.2,0.3,0.2,0.7,0.2,1.1c0,0.9-0.2,1.5-0.7,1.9s-1.2,0.5-2.1,0.5h-2.7L225.3,103.4z M226.9,109.6h0.5c0.4,0,0.8-0.1,1.1-0.2
		c0.3-0.1,0.4-0.5,0.4-1c0-0.4-0.2-0.7-0.4-0.9c-0.3-0.1-0.6-0.2-1-0.2h-0.6V109.6z M221.2,104.7h-1.4c0,1-0.1,2-0.2,3
		c-0.1,0.9-0.3,1.7-0.7,2.4c-0.3,0.7-0.9,1-1.5,1c-0.2,0-0.4,0-0.6-0.1v-1.2c0.4,0,0.7-0.2,0.9-0.6s0.3-0.9,0.4-1.5
		c0.1-0.6,0.1-1.3,0.1-2.1c0-0.2,0-0.4,0-0.7c0-0.1,0-0.3,0-0.4s0-0.3,0-0.4v-0.7h4.5v7.4h-1.6L221.2,104.7z M215.1,104.7h-3v1.7
		h2.5v1.3h-2.5v1.9h3.3v1.2h-5v-7.4h4.6L215.1,104.7z M206.8,104.7v6.2h-1.6v-6.2h-1.9v-1.3h5.4v1.2L206.8,104.7L206.8,104.7z
		 M197.2,107.9l2.8-3.5v-1h1.6v7.4H200v-4.4l-2.8,3.5v0.9h-1.6v-7.4h1.6V107.9z M186.4,107.1c0-0.4,0.1-1,0.2-1.5
		c0.2-0.6,0.5-1.1,1-1.6c0.5-0.5,1.3-0.7,2.3-0.7c1.5,0,2.4,0.4,2.9,1.3s0.7,1.7,0.7,2.5c0,0.8-0.2,1.6-0.7,2.5
		c-0.5,0.9-1.4,1.3-2.9,1.3c-1,0-1.8-0.2-2.3-0.7c-0.5-0.5-0.9-1-1-1.6C186.5,108.1,186.4,107.6,186.4,107.1L186.4,107.1z
		 M188.3,107.1c0,0.7,0.1,1.3,0.4,1.9s0.7,0.8,1.3,0.8s1.1-0.3,1.3-0.8s0.4-1.1,0.4-1.9c0-0.7-0.1-1.3-0.4-1.9
		c-0.2-0.5-0.7-0.8-1.3-0.8s-1.1,0.3-1.3,0.8C188.5,105.8,188.3,106.4,188.3,107.1z M181,108.4v2.4h-1.6v-7.4h2.3
		c1.1,0,1.9,0.2,2.4,0.6c0.6,0.4,0.8,1,0.8,2c0,1.6-1,2.4-3,2.4H181z M181,107.2h0.7c0.4,0,0.8-0.1,1-0.3s0.4-0.5,0.4-0.9
		c0-0.9-0.4-1.3-1.4-1.3H181V107.2z M175.7,104.7v6.2h-1.6v-6.2h-1.9v-1.3h5.4v1.2L175.7,104.7L175.7,104.7z M170.7,104.3l-0.8,1
		c-0.6-0.5-1.1-0.7-1.7-0.6c-0.2,0-0.5,0.1-0.7,0.3c-0.3,0.1-0.5,0.4-0.7,0.8s-0.3,0.9-0.3,1.5c0,0.9,0.2,1.5,0.5,1.8
		s0.7,0.6,1.1,0.6c0.6,0.1,1.3-0.2,1.9-0.9l0.9,0.8c-0.8,1-1.8,1.5-2.9,1.5c-0.7,0-1.2-0.2-1.8-0.5c-0.5-0.3-0.9-0.8-1.2-1.4
		c-0.3-0.6-0.4-1.3-0.4-2c0-1.3,0.4-2.3,1.1-2.9c0.7-0.7,1.6-1,2.5-1c0.5,0,1,0.1,1.4,0.3C170,103.7,170.4,104,170.7,104.3
		L170.7,104.3z M259.4,89.6h0.9c0.1,0.3,0.2,0.5,0.3,0.6c0.2,0.2,0.4,0.2,0.6,0.2c0.2,0,0.4-0.1,0.6-0.2c0.2-0.2,0.3-0.4,0.3-0.6
		h0.9c0,0.5-0.2,1-0.6,1.3c-0.4,0.3-0.8,0.5-1.3,0.5s-0.9-0.2-1.3-0.5C259.6,90.5,259.4,90.1,259.4,89.6z M259.8,96l2.8-3.5v-0.9
		h1.6V99h-1.7v-4.5l-2.8,3.5v0.9h-1.6v-7.4h1.6L259.8,96L259.8,96z M255.9,92.8h-3v1.7h2.5v1.3h-2.5v1.9h3.3v1.2h-5v-7.4h4.6
		L255.9,92.8z M247.2,92.8h-1.4c0,1-0.1,2-0.2,3c-0.1,0.9-0.3,1.7-0.7,2.4c-0.4,0.7-0.9,1-1.5,1c-0.2,0-0.4,0-0.6-0.1v-1.2
		c0.4,0,0.7-0.2,0.9-0.6s0.3-0.9,0.4-1.5s0.1-1.3,0.1-2.1c0-0.2,0-0.4,0-0.7c0-0.1,0-0.3,0-0.4s0-0.3,0-0.4v-0.5h4.5v7.4h-1.6
		L247.2,92.8z M241.2,92.8h-3v1.7h2.5v1.3h-2.5v1.9h3.3v1.2h-5v-7.4h4.6L241.2,92.8L241.2,92.8z M232.8,92.8V99h-1.6v-6.2h-1.9v-1.2
		h5.4v1.2H232.8z M223.2,97.4l-0.6,1.5H221l2.8-7.4h1.5l2.8,7.4h-1.6l-0.6-1.6L223.2,97.4z M223.6,96.2h1.8l-0.9-2.3L223.6,96.2z
		 M219.1,97.8h0.6v3h-1.5V99H214v1.8h-1.5v-3h0.7c0.4-0.6,0.6-1.2,0.8-1.8c0.2-0.6,0.3-1.2,0.3-1.8s0-1.4,0-2.5h4.7L219.1,97.8
		L219.1,97.8z M216,92.8c0,1-0.1,1.9-0.2,2.7c-0.1,0.7-0.4,1.5-0.8,2.3h2.5v-5H216z M204.1,95.3c0-0.4,0.1-1,0.2-1.5
		c0.2-0.6,0.5-1.1,1-1.6c0.5-0.5,1.3-0.7,2.3-0.7c1.5,0,2.4,0.4,2.9,1.3c0.5,0.9,0.7,1.7,0.7,2.5c0,0.8-0.2,1.6-0.7,2.5
		c-0.5,0.9-1.4,1.3-2.9,1.3c-1,0-1.8-0.2-2.3-0.7c-0.5-0.5-0.9-1-1-1.6C204.2,96.2,204.1,95.7,204.1,95.3z M206,95.3
		c0,0.7,0.1,1.3,0.4,1.9c0.2,0.5,0.7,0.8,1.3,0.8c0.6,0,1.1-0.3,1.3-0.8s0.4-1.1,0.4-1.9c0-0.7-0.1-1.3-0.4-1.9
		c-0.2-0.5-0.7-0.8-1.3-0.8c-0.6,0-1.1,0.3-1.3,0.8C206.1,93.9,206,94.6,206,95.3z M202,97.8h0.6v3h-1.5V99h-4.2v1.8h-1.5v-3h0.7
		c0.4-0.6,0.6-1.2,0.8-1.8c0.2-0.6,0.3-1.2,0.3-1.8s0-1.4,0-2.5h4.7L202,97.8L202,97.8z M199,92.8c0,1-0.1,1.9-0.2,2.7
		c-0.1,0.7-0.4,1.5-0.8,2.3h2.5v-5H199z M189.4,95.6V99h-1.6v-7.4h1.6v2.8h2.7v-2.8h1.6V99h-1.6v-3.4H189.4z M185.5,92.8h-3v1.7h2.5
		v1.3h-2.5v1.9h3.3v1.2h-5v-7.4h4.6L185.5,92.8z M175,96.6V99h-1.6v-7.4h2.3c1.1,0,1.9,0.2,2.4,0.6c0.6,0.4,0.8,1,0.8,2
		c0,1.6-1,2.4-3,2.4H175z M175,95.3h0.7c0.4,0,0.8-0.1,1-0.3c0.2-0.2,0.4-0.5,0.4-0.9c0-0.9-0.4-1.3-1.4-1.3H175V95.3z M166.6,97.4
		l-0.6,1.5h-1.6l2.8-7.4h1.5l2.8,7.4h-1.6l-0.6-1.6L166.6,97.4z M167.1,96.2h1.8l-0.9-2.3L167.1,96.2z M239.5,87.2V86
		c0.2,0,0.4-0.1,0.5-0.2c0,0,0.1-0.2,0.3-0.5c0.2-0.4,0.4-0.7,0.6-0.9c0.2-0.2,0.4-0.4,0.8-0.5c-0.4-0.1-0.8-0.3-1.2-0.6
		s-0.5-0.8-0.5-1.4c0-0.6,0.2-1.1,0.6-1.5c0.4-0.4,1.1-0.6,2.1-0.6h2.9v7.4H244v-2.9h-0.5c-0.3,0-0.6,0.1-0.7,0.2
		c-0.1,0.1-0.3,0.3-0.5,0.7c-0.3,0.7-0.6,1.2-1,1.6c-0.3,0.4-0.7,0.6-1.2,0.6C239.9,87.3,239.7,87.3,239.5,87.2L239.5,87.2z
		 M243.9,80.9h-0.8c-0.4,0-0.7,0.1-1,0.2c-0.3,0.1-0.4,0.4-0.4,0.8c0,0.7,0.4,1,1.2,1h1V80.9z M233.3,84.2l2.8-3.5v-0.9h1.6v7.4
		h-1.6v-4.5l-2.8,3.5v0.9h-1.6v-7.4h1.6V84.2z M224.7,85.9h2.7v-6.2h1.6v6.2h0.9v3h-1.4v-1.8h-5.4v-7.4h1.6L224.7,85.9z M216.3,85.6
		l-0.6,1.5h-1.6l2.8-7.4h1.5l2.8,7.4h-1.6l-0.6-1.6L216.3,85.6z M216.8,84.3h1.8l-0.9-2.3L216.8,84.3z M207.9,84.2l2.8-3.5v-0.9h1.6
		v7.4h-1.6v-4.5l-2.8,3.5v0.9h-1.6v-7.4h1.6V84.2z M199.3,85.9h2.7v-6.2h1.6v6.2h0.9v3h-1.4v-1.8h-5.4v-7.4h1.6L199.3,85.9z
		 M188.5,83.4c0-0.4,0.1-1,0.2-1.5c0.2-0.6,0.5-1.1,1-1.6c0.5-0.5,1.3-0.7,2.3-0.7c1.5,0,2.4,0.4,2.9,1.3c0.5,0.9,0.7,1.7,0.7,2.5
		c0,0.8-0.2,1.6-0.7,2.5c-0.5,0.9-1.4,1.3-2.9,1.3c-1,0-1.8-0.2-2.3-0.7c-0.5-0.5-0.9-1-1-1.6C188.6,84.4,188.5,83.9,188.5,83.4z
		 M190.4,83.4c0,0.7,0.1,1.3,0.4,1.9c0.3,0.6,0.7,0.8,1.3,0.8s1.1-0.3,1.3-0.8c0.2-0.5,0.4-1.1,0.4-1.9c0-0.7-0.1-1.3-0.4-1.9
		c-0.2-0.5-0.7-0.8-1.3-0.8s-1.1,0.3-1.3,0.8S190.4,82.7,190.4,83.4L190.4,83.4z M186.8,80.6l-0.8,1c-0.6-0.5-1.1-0.7-1.7-0.6
		c-0.2,0-0.5,0.1-0.7,0.3c-0.3,0.1-0.5,0.4-0.7,0.8c-0.2,0.4-0.3,0.9-0.3,1.5c0,0.9,0.2,1.5,0.5,1.8s0.7,0.6,1.1,0.6
		c0.6,0.1,1.3-0.2,1.9-0.9l0.9,0.8c-0.8,1-1.8,1.5-2.9,1.5c-0.7,0-1.2-0.2-1.8-0.5c-0.5-0.3-0.9-0.8-1.2-1.4c-0.3-0.6-0.4-1.3-0.4-2
		c0-1.3,0.4-2.3,1.1-2.9c0.7-0.7,1.6-1,2.5-1c0.5,0,1,0.1,1.4,0.3C186.2,80,186.5,80.3,186.8,80.6L186.8,80.6z M179,80.6l-0.8,1
		c-0.6-0.5-1.1-0.7-1.7-0.6c-0.2,0-0.5,0.1-0.7,0.3c-0.3,0.1-0.5,0.4-0.7,0.8c-0.2,0.4-0.3,0.9-0.3,1.5c0,0.9,0.2,1.5,0.5,1.8
		c0.3,0.3,0.7,0.6,1.1,0.6c0.6,0.1,1.3-0.2,1.9-0.9l0.9,0.8c-0.8,1-1.8,1.5-2.9,1.5c-0.7,0-1.2-0.2-1.8-0.5
		c-0.5-0.3-0.9-0.8-1.2-1.4c-0.3-0.6-0.4-1.3-0.4-2c0-1.3,0.4-2.3,1.1-2.9c0.7-0.7,1.6-1,2.5-1c0.5,0,1,0.1,1.4,0.3
		C178.4,80,178.8,80.3,179,80.6L179,80.6z M166.6,85.6l-0.6,1.5h-1.6l2.8-7.4h1.5l2.8,7.4h-1.6l-0.6-1.6L166.6,85.6z M167.1,84.3
		h1.8L168,82L167.1,84.3z M254.9,75.3v-1.2c0.2,0,0.4-0.1,0.5-0.2c0,0,0.1-0.2,0.3-0.5c0.2-0.4,0.4-0.7,0.6-0.9
		c0.2-0.2,0.4-0.4,0.8-0.5c-0.4-0.1-0.8-0.3-1.2-0.6c-0.4-0.3-0.5-0.8-0.5-1.4c0-0.6,0.2-1.1,0.6-1.5c0.4-0.4,1.1-0.6,2.1-0.6h2.9
		v7.4h-1.6v-2.9H259c-0.3,0-0.6,0.1-0.7,0.2c-0.1,0.1-0.3,0.3-0.5,0.7c-0.3,0.7-0.6,1.2-1,1.6c-0.3,0.4-0.7,0.6-1.2,0.6
		C255.3,75.4,255.1,75.4,254.9,75.3z M259.3,69.1h-0.8c-0.4,0-0.7,0.1-1,0.2c-0.3,0.1-0.4,0.4-0.4,0.8c0,0.7,0.4,1,1.2,1h1
		L259.3,69.1z M248.7,73.7l-0.6,1.5h-1.6l2.8-7.4h1.5l2.8,7.4H252l-0.6-1.6L248.7,73.7z M249.2,72.5h1.8l-0.9-2.3L249.2,72.5z
		 M240.4,71.9v3.4h-1.6v-7.4h1.6v2.8h2.7v-2.8h1.6v7.4h-1.6v-3.4H240.4z M231.3,67.9h1.6v2.6h1.1c0.4,0,0.7,0,1.1,0.1
		c0.3,0.1,0.6,0.2,0.9,0.4c0.3,0.2,0.5,0.4,0.6,0.7c0.2,0.3,0.2,0.7,0.2,1.1c0,0.9-0.2,1.5-0.7,1.9c-0.5,0.4-1.2,0.5-2.1,0.5h-2.7
		L231.3,67.9z M232.9,74h0.5c0.4,0,0.8-0.1,1.1-0.2c0.3-0.1,0.4-0.5,0.4-1c0-0.4-0.2-0.7-0.4-0.9c-0.3-0.1-0.6-0.2-1-0.2h-0.6V74z
		 M227.3,69.1h-1.4c0,1-0.1,2-0.2,3c-0.1,0.9-0.3,1.7-0.7,2.4c-0.3,0.7-0.9,1-1.5,1c-0.2,0-0.4,0-0.6-0.1v-1.2
		c0.4,0,0.7-0.2,0.9-0.6c0.2-0.4,0.3-0.9,0.4-1.5c0.1-0.6,0.1-1.3,0.1-2.1c0-0.2,0-0.4,0-0.7c0-0.1,0-0.3,0-0.4c0-0.1,0-0.3,0-0.4
		V68h4.5v7.4h-1.6L227.3,69.1z M216.7,73.7l-0.6,1.5h-1.6l2.8-7.4h1.5l2.8,7.4H220l-0.6-1.6L216.7,73.7z M217.2,72.5h1.8l-0.9-2.3
		L217.2,72.5z M208.4,71.9v3.4h-1.6v-7.4h1.6v2.8h2.7v-2.8h1.6v7.4h-1.6v-3.4H208.4z M197.6,71.6c0-0.4,0.1-1,0.2-1.5
		c0.2-0.6,0.5-1.1,1-1.6c0.5-0.5,1.3-0.7,2.3-0.7c1.5,0,2.4,0.4,2.9,1.3c0.5,0.9,0.7,1.7,0.7,2.5c0,0.8-0.2,1.6-0.7,2.5
		c-0.5,0.9-1.4,1.3-2.9,1.3c-1,0-1.8-0.2-2.3-0.7c-0.5-0.5-0.9-1-1-1.6C197.7,72.5,197.6,72,197.6,71.6z M199.5,71.6
		c0,0.7,0.1,1.3,0.4,1.9c0.2,0.5,0.7,0.8,1.3,0.8s1.1-0.3,1.3-0.8c0.2-0.5,0.4-1.1,0.4-1.9c0-0.7-0.1-1.3-0.4-1.9
		c-0.2-0.5-0.7-0.8-1.3-0.8s-1.1,0.3-1.3,0.8C199.6,70.2,199.5,70.8,199.5,71.6L199.5,71.6z M191.3,72.3l2.8-3.5v-0.9h1.6v7.4h-1.6
		v-4.5l-2.8,3.5v0.9h-1.6v-7.4h1.6V72.3z M182.6,74h2.7v-6.2h1.6V74h0.9v3h-1.4v-1.8H181v-7.4h1.6L182.6,74z M174.2,73.7l-0.6,1.5
		H172l2.8-7.4h1.5l2.8,7.4h-1.6l-0.6-1.6L174.2,73.7z M174.7,72.5h1.8l-0.9-2.3L174.7,72.5z M165.9,71.9v3.4h-1.6v-7.4h1.6v2.8h2.7
		v-2.8h1.6v7.4h-1.6v-3.4H165.9z"/>
</g>
<path id="path9" class="st11" d="M141.5,13.9v110h-2.1v-110H141.5z"/>
</svg>
